<?xml version="1.0" encoding="utf-8"?>
<svg height="800" width="1200" viewBox="-76.185 -28.34675 660.27 170.0805" xmlns="http://www.w3.org/2000/svg">
  <path d="M158.595 17.705a20.285 20.285 0 00-14.32-14.32C131.642 0 80.99 0 80.99 0S30.337 0 17.705 3.385a20.286 20.286 0 00-14.32 14.32C0 30.338 0 56.693 0 56.693S0 83.049 3.385 95.68A20.285 20.285 0 0017.705 110c12.632 3.386 63.285 3.386 63.285 3.386s50.652 0 63.285-3.386a20.284 20.284 0 0014.32-14.32c3.385-12.632 3.385-38.988 3.385-38.988s0-26.355-3.385-38.988" fill="red"/>
  <path d="M 64.792 80.99 L 106.874 56.693 L 64.792 32.396 L 64.792 80.99 Z" fill="#fff"/>
  <path d="M 404.11 34.23 L 404.11 105.237 L 391.599 105.237 L 390.208 96.549 L 389.863 96.549 C 386.461 103.113 381.365 106.394 374.571 106.394 C 369.86 106.394 366.385 104.851 364.145 101.761 C 361.905 98.674 360.787 93.846 360.787 87.281 L 360.787 34.23 L 376.772 34.23 L 376.772 86.356 C 376.772 89.524 377.119 91.782 377.813 93.132 C 378.509 94.485 379.668 95.159 381.289 95.159 C 382.68 95.159 384.012 94.736 385.285 93.884 C 386.56 93.035 387.505 91.956 388.124 90.643 L 388.124 34.229 L 404.109 34.229 M 322.115 34.23 L 322.115 105.237 L 309.604 105.237 L 308.214 96.549 L 307.867 96.549 C 304.468 103.113 299.371 106.394 292.576 106.394 C 287.866 106.394 284.391 104.851 282.151 101.761 C 279.911 98.674 278.792 93.846 278.792 87.281 L 278.792 34.23 L 294.777 34.23 L 294.777 86.356 C 294.777 89.524 295.125 91.782 295.82 93.132 C 296.515 94.485 297.673 95.159 299.295 95.159 C 300.685 95.159 302.017 94.736 303.291 93.884 C 304.565 93.035 305.511 91.956 306.129 90.643 L 306.129 34.229 L 322.115 34.229 M 196.19 73.727 L 178.003 8.047 L 193.872 8.047 L 200.242 37.817 C 201.865 45.156 203.062 51.411 203.833 56.583 L 204.297 56.583 C 204.837 52.877 206.035 46.661 207.888 37.933 L 214.491 8.047 L 230.36 8.047 L 211.943 73.727 L 211.943 105.237 L 196.189 105.237 L 196.189 73.727 M 481.143 75.057 L 481.143 78.648 C 481.143 83.205 481.275 86.622 481.547 88.899 C 481.816 91.178 482.375 92.839 483.227 93.881 C 484.076 94.922 485.387 95.445 487.165 95.445 C 489.557 95.445 491.2 94.518 492.088 92.664 C 492.975 90.811 493.458 87.722 493.535 83.396 L 507.32 84.208 C 507.397 84.828 507.436 85.677 507.436 86.756 C 507.436 93.321 505.641 98.226 502.049 101.468 C 498.46 104.71 493.38 106.333 486.817 106.333 C 478.941 106.333 473.419 103.863 470.253 98.919 C 467.085 93.979 465.503 86.333 465.503 75.984 L 465.503 63.589 C 465.503 52.932 467.144 45.153 470.427 40.247 C 473.708 35.344 479.327 32.892 487.281 32.892 C 492.763 32.892 496.972 33.896 499.907 35.904 C 502.84 37.914 504.907 41.041 506.104 45.287 C 507.301 49.534 507.9 55.404 507.9 62.894 L 507.9 75.057 L 481.143 75.057 M 483.168 45.171 C 482.358 46.176 481.816 47.817 481.547 50.094 C 481.275 52.372 481.143 55.828 481.143 60.461 L 481.143 65.558 L 492.84 65.558 L 492.84 60.46 C 492.84 55.905 492.685 52.449 492.377 50.093 C 492.068 47.738 491.509 46.079 490.699 45.113 C 489.887 44.147 488.632 43.664 486.933 43.664 C 485.233 43.664 483.979 44.167 483.168 45.17 L 483.168 45.171 Z M 235.115 103.152 C 231.908 100.992 229.629 97.632 228.28 93.073 C 226.928 88.519 226.253 82.456 226.253 74.888 L 226.253 64.578 C 226.253 56.934 227.024 50.794 228.569 46.161 C 230.113 41.528 232.525 38.15 235.809 36.026 C 239.091 33.903 243.396 32.84 248.725 32.84 C 253.976 32.84 258.184 33.922 261.351 36.083 C 264.516 38.245 266.833 41.625 268.301 46.219 C 269.767 50.814 270.501 56.934 270.501 64.579 L 270.501 74.889 C 270.501 82.456 269.787 88.539 268.359 93.132 C 266.929 97.727 264.612 101.087 261.408 103.209 C 258.203 105.333 253.86 106.395 248.378 106.395 C 242.738 106.395 238.318 105.313 235.115 103.152 M 253.068 92.03 C 253.955 89.716 254.4 85.932 254.4 80.68 L 254.4 58.556 C 254.4 53.459 253.955 49.734 253.068 47.378 C 252.18 45.023 250.616 43.845 248.378 43.845 C 246.215 43.845 244.688 45.023 243.801 47.378 C 242.913 49.734 242.469 53.459 242.469 58.556 L 242.469 80.68 C 242.469 85.93 242.893 89.715 243.744 92.03 C 244.592 94.348 246.136 95.505 248.377 95.505 C 250.616 95.505 252.18 94.348 253.068 92.03 Z M 365.552 20.908 L 349.682 20.908 L 349.682 105.237 L 334.045 105.237 L 334.045 20.907 L 318.176 20.907 L 318.176 8.05 L 365.552 8.05 L 365.552 20.908 M 442.363 74.544 C 442.363 79.718 442.148 83.773 441.724 86.706 C 441.3 89.643 440.585 91.727 439.581 92.961 C 438.577 94.197 437.224 94.815 435.528 94.815 C 434.252 94.826 432.994 94.506 431.878 93.888 C 430.758 93.27 429.852 92.344 429.156 91.108 L 429.156 50.796 C 429.696 48.866 430.623 47.283 431.936 46.047 C 433.249 44.813 434.676 44.194 436.221 44.194 C 437.844 44.194 439.097 44.831 439.987 46.104 C 440.873 47.379 441.492 49.522 441.84 52.534 C 442.188 55.545 442.363 59.831 442.363 65.391 L 442.363 74.544 Z M 457.015 45.58 C 456.048 41.102 454.484 37.859 452.323 35.85 C 450.16 33.843 447.187 32.839 443.404 32.839 C 440.469 32.839 437.728 33.669 435.18 35.329 C 432.667 36.95 430.629 39.209 429.272 41.874 L 429.155 41.874 L 429.156 4.458 L 413.751 4.458 L 413.751 105.235 L 426.955 105.235 L 428.577 98.518 L 428.924 98.518 C 430.159 100.911 432.012 102.803 434.484 104.193 C 436.954 105.583 439.697 106.278 442.709 106.278 C 448.113 106.278 452.091 103.787 454.64 98.807 C 457.188 93.825 458.463 86.047 458.463 75.466 L 458.463 64.23 C 458.463 56.277 457.979 50.06 457.015 45.58" style="fill: rgb(33, 33, 33);"/>
</svg>